<svg xmlns="http://www.w3.org/2000/svg" xmlns:xlink="http://www.w3.org/1999/xlink" viewBox="0 0 500 500"><defs><linearGradient id="linear-gradient" x1="207.85" y1="303.69" x2="284.51" y2="537.02" gradientUnits="userSpaceOnUse"><stop offset="0" stop-color="#ffada6"/><stop offset="0.99" stop-color="#ffe7db"/></linearGradient><linearGradient id="linear-gradient-2" x1="368.6" y1="111.92" x2="463.12" y2="111.92" gradientUnits="userSpaceOnUse"><stop offset="0" stop-color="#453ae9"/><stop offset="0.21" stop-color="#453fe9"/><stop offset="0.47" stop-color="#434ee8"/><stop offset="0.76" stop-color="#4167e7"/><stop offset="1" stop-color="#3f82e6"/></linearGradient><linearGradient id="linear-gradient-3" x1="65.26" y1="69.25" x2="159.78" y2="69.25" gradientTransform="matrix(-1, 0, 0, 1, 206.38, 0)" xlink:href="#linear-gradient-2"/><linearGradient id="linear-gradient-4" x1="33.18" y1="203.55" x2="103.26" y2="203.55" gradientTransform="matrix(-1, 0, 0, 1, 124.44, 0)" xlink:href="#linear-gradient-2"/><linearGradient id="linear-gradient-5" x1="26.55" y1="372.14" x2="190.29" y2="372.14" gradientTransform="matrix(0.97, -0.24, 0.24, 0.97, -80.54, 36.88)" xlink:href="#linear-gradient-2"/><linearGradient id="linear-gradient-6" x1="228.97" y1="57.24" x2="290.43" y2="57.24" xlink:href="#linear-gradient-2"/><linearGradient id="linear-gradient-7" x1="75.22" y1="261.61" x2="423.55" y2="261.61" gradientTransform="matrix(0.89, 0.12, -0.11, 0.99, 59.63, -22.88)" gradientUnits="userSpaceOnUse"><stop offset="0.01" stop-color="#4d4d4d"/><stop offset="1" stop-color="#333"/></linearGradient><linearGradient id="linear-gradient-8" x1="198.03" y1="217.68" x2="298.6" y2="217.68" gradientTransform="translate(32.39 -32.16) rotate(7.93)" gradientUnits="userSpaceOnUse"><stop offset="0" stop-color="#ffada6"/><stop offset="0.24" stop-color="#ffb2ab"/><stop offset="0.53" stop-color="#ffc1b9"/><stop offset="0.85" stop-color="#ffdacf"/><stop offset="0.99" stop-color="#ffe7db"/></linearGradient><linearGradient id="linear-gradient-9" x1="200.67" y1="236.64" x2="301.24" y2="236.64" gradientTransform="translate(35.03 -32.35) rotate(7.93)" xlink:href="#linear-gradient-8"/><linearGradient id="linear-gradient-10" x1="203.31" y1="255.61" x2="303.88" y2="255.61" gradientTransform="translate(37.67 -32.53) rotate(7.93)" xlink:href="#linear-gradient-8"/><linearGradient id="linear-gradient-11" x1="205.95" y1="274.57" x2="306.52" y2="274.57" gradientTransform="translate(40.31 -32.71) rotate(7.93)" xlink:href="#linear-gradient-8"/><linearGradient id="linear-gradient-12" x1="208.51" y1="292.98" x2="309.09" y2="292.98" gradientTransform="translate(42.87 -32.89) rotate(7.93)" xlink:href="#linear-gradient-8"/><linearGradient id="linear-gradient-13" x1="325.14" y1="352.42" x2="321.64" y2="434.92" xlink:href="#linear-gradient-2"/></defs><title>background</title><g style="isolation:isolate"><g id="BACKGROUND"><rect y="1" width="499" height="500" style="fill:#fff9f7"/><path d="M499,360c-13.79-13.79-47-30-96.27-22.69-15.79,2.34-30.9,9.76-46.84,9-31.26-1.48-50.17-35.78-79-48-25.83-11-56.47-2.33-79.37,13.9s-40,39.12-58.4,60.33S99.74,414.22,73.07,423c-13.89,4.57-28.74,5.73-42.56,10.52S3.2,448.06,0,462.33V501H499S500.91,361.91,499,360Z" style="fill:url(#linear-gradient)"/></g><g id="OBJECTS"><path d="M406.32,398.45c-2.32-8.12-56.36.5-124.83,9.27s-123.61,18.84-123.14,22.49,43.84,5.56,112.32-3.21S407.33,402,406.32,398.45Z" style="fill:#c8c8c8;mix-blend-mode:multiply"/><path d="M356.55,439.43c-.7-6.67-17.38-4.56-38.51-3.59s-38.16,4.15-38,7.1,13.5,8.29,34.63,7.32S356.85,442.34,356.55,439.43Z" style="fill:#c8c8c8;mix-blend-mode:multiply"/><path d="M369.82,128.62c-3.27-7.27.27-16.85,7.48-20.26s16.85,0,20.4,7.09a16.92,16.92,0,0,1,32.46-6.21c-1-6.82,4.44-13.65,11.17-15.08s14,2,17.91,7.69S464,115,462.31,121.66c-.71,2.85-2,5.8-4.56,7.24-2,1.12-4.41,1.12-6.7,1.1" style="fill:url(#linear-gradient-2)"/><path d="M139.89,86c3.27-7.28-.27-16.86-7.48-20.26s-16.85-.06-20.39,7.09a16.92,16.92,0,0,0-32.47-6.22c1-6.81-4.44-13.64-11.17-15.08s-14,2-17.9,7.7S45.76,72.31,47.41,79c.7,2.85,2,5.8,4.55,7.24,2,1.12,4.41,1.13,6.7,1.1" style="fill:url(#linear-gradient-3)"/><path d="M90.36,215.93a11.43,11.43,0,0,0-20.67-9.76,12.94,12.94,0,0,0-10.19-12,12.93,12.93,0,0,0-13.89,7.38c.73-5.06-3.29-10.12-8.28-11.18s-10.37,1.5-13.28,5.7a18.34,18.34,0,0,0-2.27,14.69c.52,2.11,1.48,4.3,3.37,5.37a9.83,9.83,0,0,0,5,.81" style="fill:url(#linear-gradient-4)"/><path d="M184.64,402.49c.56,7.15-8.1,12.15-15.13,10.77s-12.46-6.82-17.45-12-10.49-10.54-17.55-11.78c-11.62-2-22.53,7.9-34.3,7.05S80.5,384.94,73.7,375.41s-16-19.77-27.7-18.81c-4.26.35-8.31,2.24-12.59,2.37s-9.24-2.58-9.19-6.86,4.57-6.67,8.44-8.25l34.14-14c12.69-5.2,27.17-10.41,39.67-4.75,10.91,4.93,17.5,17.13,28.81,21,14.86,5.14,32.1-6,46.54.26,10.88,4.68,15.87,18,14.59,29.78S189,398.57,183,408.77" style="fill:url(#linear-gradient-5)"/><path d="M25.55,353.35c16.23-9,43.67-7.86,60.93-1.07,10.81,4.26,20.59,11.52,32.06,13.37,9.94,1.6,20-1.06,30.11-.87,16.33.31,33.36,12,43,25.19" style="fill:none;stroke:#fff9f7;stroke-miterlimit:10;stroke-width:0.650033px"/><path d="M122.62,365.88s-7.87-36-23.93-42.8" style="fill:none;stroke:#fff9f7;stroke-miterlimit:10;stroke-width:0.650033px"/><path d="M62.74,347.31S61,356.11,46,356.6" style="fill:none;stroke:#fff9f7;stroke-miterlimit:10;stroke-width:0.650033px"/><path d="M165.82,369.36s2-17.14-11.35-22" style="fill:none;stroke:#fff9f7;stroke-miterlimit:10;stroke-width:0.650033px"/><path d="M179.68,377.53s-10.53,17.41-32,19.15" style="fill:none;stroke:#fff9f7;stroke-miterlimit:10;stroke-width:0.650033px"/><path d="M86.79,322.9s13.36,9,20.52,39.83" style="fill:none;stroke:#fff9f7;stroke-miterlimit:10;stroke-width:0.650033px"/><path d="M118.54,365.65s-16,21.12-34.68,21.62" style="fill:none;stroke:#fff9f7;stroke-miterlimit:10;stroke-width:0.650033px"/><path d="M63.41,363.4s19.78-.94,25.49-9.55" style="fill:none;stroke:#fff9f7;stroke-miterlimit:10;stroke-width:0.650033px"/><path d="M39,341.15s3.75-2,9.88,5.3" style="fill:none;stroke:#fff9f7;stroke-miterlimit:10;stroke-width:0.650033px"/><path d="M60.49,332.58s6.32,3.32,9.37,14.84" style="fill:none;stroke:#fff9f7;stroke-miterlimit:10;stroke-width:0.650033px"/><path d="M134.51,389.51s29-2.05,26.56-22.4" style="fill:none;stroke:#fff9f7;stroke-miterlimit:10;stroke-width:0.650033px"/><path d="M135.28,346.16s8.54,7.62,3.86,17.88" style="fill:none;stroke:#fff9f7;stroke-miterlimit:10;stroke-width:0.650033px"/><path d="M178.65,345.64s9.9,18.73,5.45,34.22" style="fill:none;stroke:#fff9f7;stroke-miterlimit:10;stroke-width:0.650033px"/><path d="M332.5,346.9c-6.8-3-7.14-13.35-2.43-19.1s12.32-8.05,19.47-10.09,14.76-4.43,19.35-10.28c7.54-9.63,3.8-24.46,10.34-34.8s20.25-12.34,32.28-13.89,25.92-5,30.75-16.12c1.76-4.06,2-8.69,4-12.66s6.87-7.19,10.76-5.05,3.86,7.44,3.42,11.76q-2,19-3.91,38c-1.46,14.15-3.78,29.93-15.07,38.58-9.84,7.56-24.21,7.61-33.32,16-12,11.07-10.25,32.25-23,42.41-9.6,7.66-24.22,5.7-34.36-1.23S334,352.77,327.59,342.28" style="fill:#ffae2c"/><path d="M455.23,225.53c.26,19.22-14.18,43.75-28.83,56.21-9.17,7.8-20.59,13.18-27.89,22.76-6.33,8.3-8.84,18.84-13.94,27.95-8.27,14.76-27.28,24.62-44,27" style="fill:none;stroke:#fff9f7;stroke-miterlimit:10;stroke-width:0.6738259999999999px"/><path d="M396.3,308.12s36.78,10.42,50.83-.94" style="fill:none;stroke:#fff9f7;stroke-miterlimit:10;stroke-width:0.6738259999999999px"/><path d="M442.57,262.47s-7.21-5.89-.31-19.85" style="fill:none;stroke:#fff9f7;stroke-miterlimit:10;stroke-width:0.6738259999999999px"/><path d="M372,345.89s14.69,10.21,25.7.41" style="fill:none;stroke:#fff9f7;stroke-miterlimit:10;stroke-width:0.6738259999999999px"/><path d="M357.75,354.57S347,336.43,355.88,316" style="fill:none;stroke:#fff9f7;stroke-miterlimit:10;stroke-width:0.6738259999999999px"/><path d="M453.11,296.39s-14.76,7.81-46.44-.72" style="fill:none;stroke:#fff9f7;stroke-miterlimit:10;stroke-width:0.6738259999999999px"/><path d="M398.51,304.5s-11.47-25-2.8-42.28" style="fill:none;stroke:#fff9f7;stroke-miterlimit:10;stroke-width:0.6738259999999999px"/><path d="M427.52,255.21s-8.8,18.54-3.73,28" style="fill:none;stroke:#fff9f7;stroke-miterlimit:10;stroke-width:0.6738259999999999px"/><path d="M459.8,243.78s0,4.39-9.67,6.43" style="fill:none;stroke:#fff9f7;stroke-miterlimit:10;stroke-width:0.6738259999999999px"/><path d="M457.12,267.61S451,271.77,439,268.92" style="fill:none;stroke:#fff9f7;stroke-miterlimit:10;stroke-width:0.6738259999999999px"/><path d="M368.89,307.43s-12.32,27.52,7.48,35.22" style="fill:none;stroke:#fff9f7;stroke-miterlimit:10;stroke-width:0.6738259999999999px"/><path d="M408.13,329.33S397,333.4,389.9,324.12" style="fill:none;stroke:#fff9f7;stroke-miterlimit:10;stroke-width:0.6738259999999999px"/><path d="M387.4,369.22s-22-.11-33.95-11.75" style="fill:none;stroke:#fff9f7;stroke-miterlimit:10;stroke-width:0.6738259999999999px"/><g style="mix-blend-mode:multiply"><path d="M165.35,369.23c-2.06,4.51-8.57,4.39-12,1s-4.7-8.61-5.78-13.51-2.35-10.14-5.89-13.44c-5.83-5.43-15.23-3.38-21.53-8.15S113,321,112.32,312.82s-2.39-17.7-9.23-21.34c-2.5-1.33-5.4-1.65-7.83-3.12s-4.31-4.9-2.86-7.45,4.77-2.37,7.47-1.93l23.74,3.91c8.83,1.46,18.66,3.56,23.77,11.48,4.46,6.91,4.08,16.64,9.11,23.08,6.6,8.47,19.93,8,25.94,17,4.53,6.75,2.88,16.58-1.75,23.21s-11.6,10.79-18.36,14.76" style="fill:#00875b"/><path d="M92.73,282.13c12.06.46,27,11.05,34.43,21.38,4.63,6.47,7.68,14.38,13.48,19.64,5,4.55,11.57,6.6,17.13,10.36,9,6.08,14.67,19.28,15.66,30.7" style="fill:none;stroke:#fff9f7;stroke-miterlimit:10;stroke-width:0.43947899999999995px"/><path d="M111.74,309.68s10.86,5.83,20.35,1.94" style="fill:none;stroke:#fff9f7;stroke-miterlimit:10;stroke-width:0.43947899999999995px"/><path d="M155.74,333s-28.64,5.27-39-1.48" style="fill:none;stroke:#fff9f7;stroke-miterlimit:10;stroke-width:0.43947899999999995px"/><path d="M115.54,291.93s-3.9,4.68-12.45-.45" style="fill:none;stroke:#fff9f7;stroke-miterlimit:10;stroke-width:0.43947899999999995px"/><path d="M165.85,342.47s6.81-9.61,1-17.38" style="fill:none;stroke:#fff9f7;stroke-miterlimit:10;stroke-width:0.43947899999999995px"/><path d="M170.89,352.4s-11.69,6.68-24.26,0" style="fill:none;stroke:#fff9f7;stroke-miterlimit:10;stroke-width:0.43947899999999995px"/><path d="M137.11,285.92s4.48,10.24-1.77,31.41" style="fill:none;stroke:#fff9f7;stroke-miterlimit:10;stroke-width:0.43947899999999995px"/><path d="M104.31,279.64s2.75.16,3.76,6.76" style="fill:none;stroke:#fff9f7;stroke-miterlimit:10;stroke-width:0.43947899999999995px"/><path d="M119.18,282.25s2.43,4.28.3,12.32" style="fill:none;stroke:#fff9f7;stroke-miterlimit:10;stroke-width:0.43947899999999995px"/><path d="M141.64,343.29s16.91,9.25,22.3-3.9" style="fill:none;stroke:#fff9f7;stroke-miterlimit:10;stroke-width:0.43947899999999995px"/><path d="M156.49,317.45s2.24,7.68-3.79,12.17" style="fill:none;stroke:#fff9f7;stroke-miterlimit:10;stroke-width:0.43947899999999995px"/><path d="M180.91,332.81s-.69,14.87-8.33,22.59" style="fill:none;stroke:#fff9f7;stroke-miterlimit:10;stroke-width:0.43947899999999995px"/></g><g style="mix-blend-mode:multiply"><path d="M335.13,305.71c-4.94-.37-7.09-6.51-5.13-10.94s6.44-7.4,10.67-10.11,8.69-5.73,10.56-10.19c3.07-7.35-2.11-15.46.17-23s10.76-11.61,18.23-15,15.78-8.38,16.82-16.06c.37-2.81-.32-5.64.21-8.43s3.09-5.74,6-5.27,3.88,3.66,4.4,6.34q2.28,11.82,4.57,23.63c1.7,8.78,3.14,18.73-2.52,26.27-4.93,6.58-14.19,9.6-18.49,16.55-5.65,9.13-.6,21.48-6.92,30.22-4.76,6.59-14.55,8.46-22.37,6.41S337.17,308.93,331.1,304" style="fill:#00875b"/><path d="M391.62,207.38c3.75,11.48-1,29.19-8.1,39.71-4.46,6.59-10.82,12.19-13.74,19.46-2.53,6.29-2.19,13.14-3.78,19.66-2.57,10.57-13,20.44-23.36,25.33" style="fill:none;stroke:#fff9f7;stroke-miterlimit:10;stroke-width:0.43947899999999995px"/><path d="M372.37,234.77s-1.69,12.21,5.25,19.76" style="fill:none;stroke:#fff9f7;stroke-miterlimit:10;stroke-width:0.43947899999999995px"/><path d="M365.8,284.12s-14.88-25-12.12-37.06" style="fill:none;stroke:#fff9f7;stroke-miterlimit:10;stroke-width:0.43947899999999995px"/><path d="M390.34,232.17s-5.74-2-3.89-11.83" style="fill:none;stroke:#fff9f7;stroke-miterlimit:10;stroke-width:0.43947899999999995px"/><path d="M360.4,296.89S371.77,300,377,291.78" style="fill:none;stroke:#fff9f7;stroke-miterlimit:10;stroke-width:0.43947899999999995px"/><path d="M352.83,305.06s-10.31-8.64-8.39-22.76" style="fill:none;stroke:#fff9f7;stroke-miterlimit:10;stroke-width:0.43947899999999995px"/><path d="M403.46,250.32s-8,7.75-30.07,9.23" style="fill:none;stroke:#fff9f7;stroke-miterlimit:10;stroke-width:0.43947899999999995px"/><path d="M398,217.38s.81,2.63-5,5.87" style="fill:none;stroke:#fff9f7;stroke-miterlimit:10;stroke-width:0.43947899999999995px"/><path d="M400.69,232.23s-3.17,3.76-11.46,4.56" style="fill:none;stroke:#fff9f7;stroke-miterlimit:10;stroke-width:0.43947899999999995px"/><path d="M351.23,274.47s-2.81,19.07,11.39,19.56" style="fill:none;stroke:#fff9f7;stroke-miterlimit:10;stroke-width:0.43947899999999995px"/><path d="M380.61,279.43s-6.42,4.77-12.72.67" style="fill:none;stroke:#fff9f7;stroke-miterlimit:10;stroke-width:0.43947899999999995px"/><path d="M374.68,307.67s-14.18,4.51-24.07,0" style="fill:none;stroke:#fff9f7;stroke-miterlimit:10;stroke-width:0.43947899999999995px"/></g><ellipse cx="332" cy="92.33" rx="62.33" ry="62" style="fill:#ff8788;opacity:0.71;mix-blend-mode:multiply"/><g style="mix-blend-mode:multiply"><path d="M229.77,68.11a10,10,0,0,1,18.12-8.57,11,11,0,0,1,21.12-4c-.64-4.43,2.88-8.87,7.26-9.81s9.1,1.33,11.64,5a16.08,16.08,0,0,1,2,12.88c-.46,1.85-1.3,3.77-3,4.7a8.59,8.59,0,0,1-4.36.72" style="fill:url(#linear-gradient-6)"/></g><path d="M166.51,420.07l-37.21-277A9,9,0,0,1,137,133L330.11,107a9,9,0,0,1,10.11,7.72l37.21,277a9,9,0,0,1-7.72,10.12L176.62,427.79A9,9,0,0,1,166.51,420.07Z" style="fill:#959595"/><rect x="106.17" y="162.87" width="294.39" height="209.06" rx="9" transform="translate(484.66 -19.3) rotate(82.35)" style="fill:url(#linear-gradient-7)"/><rect x="127.12" y="184.91" width="252.49" height="165" transform="translate(484.66 -19.3) rotate(82.35)" style="fill:#fff"/><polygon points="262.73 416.84 204.56 424.1 244.21 118.57 302.38 111.31 262.73 416.84" style="fill:#fff;opacity:0.17"/><path d="M231.39,135.68a3,3,0,1,1,2.86-3.37A3.14,3.14,0,0,1,231.39,135.68Z" style="fill:#333"/><rect x="197.63" y="212.33" width="101.37" height="10.7" rx="5.09" transform="translate(-27.64 36.32) rotate(-7.93)" style="fill:url(#linear-gradient-8)"/><rect x="200.27" y="231.29" width="101.37" height="10.7" rx="5.09" transform="translate(-30.24 36.87) rotate(-7.93)" style="fill:url(#linear-gradient-9)"/><rect x="202.91" y="250.26" width="101.37" height="10.7" rx="5.09" transform="translate(-32.83 37.41) rotate(-7.93)" style="fill:url(#linear-gradient-10)"/><rect x="205.55" y="269.22" width="101.37" height="10.7" rx="5.09" transform="translate(-35.42 37.96) rotate(-7.93)" style="fill:url(#linear-gradient-11)"/><rect x="208.11" y="287.63" width="101.37" height="10.7" rx="5.09" transform="translate(-37.93 38.49) rotate(-7.93)" style="fill:url(#linear-gradient-12)"/><path d="M272.61,277.68s-5.85-10.92-10.92-12.87c0,0-1.95-3.71,3.31-1.76a4.64,4.64,0,0,1-1.75-2.32.45.45,0,0,1,.46-.6c2.36.14,10.43,1.62,13.58,15.21l-4.49,3.31" style="fill:#ffb2b6"/><rect x="338.63" y="436.44" width="5.82" height="3.14" transform="translate(683.07 876.03) rotate(180)" style="fill:#fff"/><rect x="302.05" y="436.44" width="5.82" height="3.14" transform="translate(609.92 876.03) rotate(180)" style="fill:#fff"/><path d="M344.88,438.75v4.34H331.1S328.81,435.9,344.88,438.75Z" style="fill:#fff"/><path d="M308.22,438.75v4.34H294.45S292.15,435.9,308.22,438.75Z" style="fill:#fff"/><path d="M341.7,340.92,339.88,398a22.73,22.73,0,0,0,.25,4.2l5.36,34.37H335.07l-7.26-35.88a22.85,22.85,0,0,1-.41-3.07l-2.14-34.07a.44.44,0,0,0-.85-.13l-11.14,29.35a9,9,0,0,0-.56,2.45L309,436.56h-9l-.47-44.94a9.94,9.94,0,0,1,.19-2L310,340.44Z" style="fill:url(#linear-gradient-13)"/><path d="M310.93,305.05l-20.3-2.54a7.16,7.16,0,0,1-5.35-2.57l-15.95-21.61,9.52-6.66L291,288.5a7.2,7.2,0,0,0,5.52,3L340,288.67l5,62.83-38.56-4.58Z" style="fill:#00aee0"/><path d="M340.87,295.7l16.56,23.49a6.61,6.61,0,0,1-1.58,9.21l-16.16,11.45-6.39-9.94,12.58-6.86a.6.6,0,0,0,.16-.93l-10.37-11.27.94-16.57,1.9-1.9Z" style="fill:#00aee0"/><path d="M315.5,270.5a23.28,23.28,0,0,0-3.67,4.5l1.17,1-1.67,4.5,7.84,2,5.5-13.5Z" style="fill:#ffb2b6"/><path d="M324.61,261.94c-3-1-6.26.48-8.31,3.63a16.21,16.21,0,0,0-1.85,11.93c-1.95-.62-4.12.36-5.44,2.47a10.62,10.62,0,0,0-1,7.89,9.13,9.13,0,0,0-4.82,2.4,6.59,6.59,0,0,0-1.29,6.39c1,2.35,3.28,2.57,5.21,2.51l37.19-1.22a5.28,5.28,0,0,0,2.86-.67c1.66-1.13,2.39-4.37,1.49-6.64s-3.24-3.1-4.81-1.71c2-1.77,2.79-5.84,1.66-8.77s-4-4.29-6.12-2.91c2.07-3.42,1.66-8.93-.39-12.38a10.41,10.41,0,0,0-8.55-5.19c-3.2-.17-6.36.93-9.46,2,0,1.47,0,2.94-.05,4.41" style="fill:#452b2c"/></g></g></svg>