<?xml version="1.0" encoding="utf-8"?>
<!-- Generator: Adobe Illustrator 23.0.0, SVG Export Plug-In . SVG Version: 6.00 Build 0)  -->
<svg version="1.1" id="Layer_1" xmlns="http://www.w3.org/2000/svg" xmlns:xlink="http://www.w3.org/1999/xlink" x="0px" y="0px"
	 viewBox="0 0 1920 80" style="enable-background:new 0 0 1920 80;" xml:space="preserve">
<style type="text/css">
	.st0{fill:#F4F6F6;}
	.st1{fill:none;stroke:#F4F6F6;stroke-width:4;stroke-miterlimit:10;}
	.st2{fill:none;stroke:#F4F6F6;stroke-width:18;stroke-linecap:round;stroke-miterlimit:10;}
	.st3{fill:none;stroke:#F4F6F6;stroke-width:8;stroke-linecap:round;stroke-miterlimit:10;}
	.st4{fill:none;stroke:#F4F6F6;stroke-width:3;stroke-miterlimit:10;}
	.st5{fill:none;stroke:#F4F6F6;stroke-width:2;stroke-miterlimit:10;}
	.st6{fill:none;stroke:#F4F6F6;stroke-width:2;}
</style>
<title>nav-pat</title>
<path class="st0" d="M260,45.3l-11.9-6.9c-1.6-0.9-3.7-0.4-4.7,1.3c-0.3,0.5-0.5,1.1-0.5,1.7v13.8c0,1.9,1.5,3.4,3.4,3.5
	c0.6,0,1.2-0.2,1.7-0.5l11.9-6.9c1.6-0.9,2.2-3.1,1.3-4.7C261,46.1,260.5,45.6,260,45.3z"/>
<path class="st0" d="M712,60.5l2.7-13.5c0.4-1.9-0.8-3.7-2.7-4.1c-0.6-0.1-1.2-0.1-1.8,0.1l-13.1,4.4c-1.8,0.6-2.8,2.5-2.2,4.3
	c0.2,0.6,0.5,1.1,1,1.5l10.3,9.1c1.4,1.3,3.6,1.2,4.8-0.3C711.6,61.7,711.9,61.1,712,60.5z"/>
<circle class="st0" cx="361.3" cy="80" r="27.7"/>
<path class="st0" d="M1486.5,47.6l11.9-6.9c1.6-0.9,3.8-0.4,4.7,1.3c0.3,0.5,0.5,1.1,0.5,1.7v13.8c0,1.9-1.5,3.4-3.4,3.5
	c-0.6,0-1.2-0.2-1.8-0.5l-11.9-6.9c-1.7-0.9-2.2-3-1.3-4.7C1485.5,48.4,1485.9,47.9,1486.5,47.6z"/>
<path class="st0" d="M1305.8,59.6l-5.7-9.9c-0.6-1.1-0.3-2.5,0.8-3.2c0.4-0.2,0.7-0.3,1.2-0.3h11.4c1.3,0,2.3,1.1,2.3,2.3
	c0,0.4-0.1,0.8-0.3,1.2l-5.7,9.9c-0.7,1.1-2.1,1.5-3.2,0.8C1306.2,60.2,1306,59.9,1305.8,59.6z"/>
<circle class="st0" cx="1607.1" cy="18.9" r="27.7"/>
<circle class="st0" cx="548.5" cy="19.3" r="11.1"/>
<circle class="st0" cx="1189.5" cy="28.9" r="7.8"/>
<path class="st0" d="M439.3,32.7l1.5-5.8l-5.8-1.5l1.1-4l5.8,1.5l1.5-5.8l3.9,1l-1.5,5.8l5.9,1.5l-1.1,4l-5.9-1.5l-1.5,5.8
	L439.3,32.7z"/>
<path class="st0" d="M1391.1,63.1l-4.3-4.2l-4.2,4.3l-3-2.9l4.2-4.3l-4.3-4.2l2.8-2.9l4.3,4.2l4.2-4.3l3,2.9l-4.2,4.3l4.3,4.2
	L1391.1,63.1z"/>
<line class="st1" x1="209.5" y1="-46" x2="71" y2="92.5"/>
<line class="st1" x1="222" y1="-33.5" x2="83.5" y2="105"/>
<line class="st1" x1="235.5" y1="-20" x2="97" y2="118.5"/>
<line class="st2" x1="1027.4" y1="-109.6" x2="888.9" y2="28.9"/>
<line class="st3" x1="941.3" y1="23.3" x2="802.8" y2="161.8"/>
<line class="st1" x1="1024.7" y1="-20" x2="886.2" y2="118.5"/>
<polyline class="st4" points="577.3,63 559.5,53.2 541.7,63 523.9,53.2 506.1,63 488.3,53.2 470.5,63 452.8,53.2 435,63 "/>
<circle class="st5" cx="320.2" cy="25.4" r="13"/>
<path class="st4" d="M755.5,7l-85.7-92.5c-1.3-1.4-3.5-1.4-4.9-0.1c-0.4,0.4-0.7,0.9-0.9,1.4L626.8,36.3c-0.6,1.8,0.5,3.7,2.3,4.3
	c0.6,0.2,1.1,0.2,1.7,0.1l122.9-28c1.9-0.4,3-2.2,2.6-4.1C756.2,8,755.9,7.4,755.5,7z"/>
<circle class="st5" cx="1566" cy="73.6" r="13"/>
<polyline class="st4" points="1276.5,17.8 1294.3,27.6 1312,17.8 1329.8,27.6 1347.6,17.8 1365.4,27.6 1383.2,17.8 1401,27.6 
	1418.8,17.8 "/>
<path class="st6" d="M1084.3,125.1l13.1-49.4l-49.8-13.2l9-34.1l49.8,13.2l13.1-49.4l33.2,8.8l-13.1,49.4l49.9,13.2l-9,34.1
	l-49.9-13.2l-13.1,49.4L1084.3,125.1z"/>
</svg>
