<svg id="Layer_1" data-name="Layer 1" xmlns="http://www.w3.org/2000/svg" viewBox="0 0 335.09 99.53"><title>nav-pat</title><path d="M260,45.33l-11.93-6.88a3.44,3.44,0,0,0-5.16,3V55.2a3.44,3.44,0,0,0,5.16,3L260,51.29A3.44,3.44,0,0,0,260,45.33Z" transform="translate(-242.91 -8.16)" style="fill:#d2d0fe"/><circle cx="118.4" cy="71.84" r="27.69" style="fill:#d2d0fe"/><circle cx="305.55" cy="11.09" r="11.09" style="fill:#d2d0fe"/><path d="M439.28,32.65l1.53-5.8L435,25.31l1.06-4,5.84,1.54,1.53-5.79,3.9,1-1.54,5.79,5.86,1.55-1.06,4-5.86-1.55-1.53,5.8Z" transform="translate(-242.91 -8.16)" style="fill:#d2d0fe"/><polyline points="334.37 54.89 316.58 45.06 298.79 54.89 281 45.06 263.21 54.89 245.42 45.06 227.63 54.89 209.84 45.06 192.06 54.89" style="fill:none;stroke:#d2d0fe;stroke-miterlimit:10;stroke-width:3px"/><circle cx="77.29" cy="17.21" r="13" style="fill:none;stroke:#d2d0fe;stroke-miterlimit:10;stroke-width:2px"/></svg>