<svg id="Layer_1" data-name="Layer 1" xmlns="http://www.w3.org/2000/svg" viewBox="0 0 1920 100"><title>pattern</title><rect x="-135.86" y="1.35" width="45.91" height="773.39" rx="22.95" transform="translate(178.9 108.44) rotate(30)" style="fill:#1e253f"/><rect x="330.14" y="-644.65" width="45.91" height="773.39" rx="22.95" transform="translate(-81.67 -211.1) rotate(30)" style="fill:#1e253f"/><rect x="2012.14" y="-644.65" width="45.91" height="773.39" rx="22.95" transform="translate(143.67 -1052.1) rotate(30)" style="fill:#1e253f"/><rect x="1537.14" y="1.35" width="45.91" height="773.39" rx="22.95" transform="translate(403.03 -728.06) rotate(30)" style="fill:#1e253f"/><rect x="84.99" y="-32.65" width="20.2" height="773.39" rx="10.1" transform="matrix(0.87, 0.5, -0.5, 0.87, 189.76, -0.11)" style="fill:#1e253f"/><rect x="1819.99" y="-644.65" width="20.2" height="773.39" rx="10.1" transform="translate(116.21 -949.6) rotate(30)" style="fill:#1e253f"/><rect x="527.43" y="-168.78" width="7.25" height="277.44" rx="3.62" transform="translate(56.12 -269.56) rotate(30)" style="fill:#1e253f"/><circle cx="522" cy="100" r="9" style="fill:#1e253f"/><circle cx="1062" cy="29" r="62" style="fill:#1e253f"/><circle cx="395" cy="24" r="13" style="fill:none;stroke:#1e253f;stroke-miterlimit:10;stroke-width:2px"/><path d="M592.39,33.78l-25.28,9.29a4.55,4.55,0,0,0-1.35,7.78L586.44,68.1a4.57,4.57,0,0,0,7.42-2.73l4.59-26.53A4.56,4.56,0,0,0,592.39,33.78Z" style="fill:#1e253f"/><path d="M923.41-8.22l-152.28,56a4.56,4.56,0,0,0-1.34,7.78l124.6,103.9a4.56,4.56,0,0,0,7.41-2.72L929.48-3.16A4.56,4.56,0,0,0,923.41-8.22Z" style="fill:none;stroke:#1e253f;stroke-miterlimit:10;stroke-width:2px"/><path d="M428.08,80,419.7,69a3.44,3.44,0,0,0-5.91.77l-5.28,12.73a3.44,3.44,0,0,0,3.62,4.73l13.66-1.79A3.44,3.44,0,0,0,428.08,80Z" style="fill:#1e253f"/><rect x="1371.32" y="-7.66" width="7.25" height="277.44" rx="3.62" transform="translate(2500.15 932.03) rotate(-150)" style="fill:#1e253f"/><circle cx="1384" cy="1" r="9" style="fill:#1e253f"/><circle cx="1511" cy="77" r="13" style="fill:none;stroke:#1e253f;stroke-miterlimit:10;stroke-width:2px"/><path d="M1313.61,67.22l25.28-9.29a4.55,4.55,0,0,0,1.35-7.78L1319.56,32.9a4.57,4.57,0,0,0-7.42,2.73l-4.59,26.53A4.56,4.56,0,0,0,1313.61,67.22Z" style="fill:#1e253f"/><path d="M1477.92,21,1486.3,32a3.44,3.44,0,0,0,5.91-.77l5.28-12.73a3.44,3.44,0,0,0-3.62-4.73l-13.66,1.79A3.44,3.44,0,0,0,1477.92,21Z" style="fill:#1e253f"/></svg>